<?xml version="1.0" encoding="UTF-8"?>
<svg id="Livello_2" data-name="Livello 2" xmlns="http://www.w3.org/2000/svg" viewBox="0 0 485.26 403.85">
  <defs>
    <style>
      .cls-1 {
        fill: #f0f0f0;
      }

      .cls-2 {
        fill: #ebbebe;
      }

      .cls-3 {
        fill: #ededed;
      }

      .cls-4 {
        fill: #edd1d1;
      }

      .cls-5 {
        fill: #e67b7b;
      }

      .cls-6 {
        fill: #d62424;
      }

      .cls-7 {
        fill: #de5050;
      }
    </style>
  </defs>
  <g id="Livello_1-2" data-name="Livello 1">
    <g>
      <path class="cls-6" d="M485.26,.8V403.32h-74.88v-5.55c0-105.99-.02-211.98,.1-317.98,0-2.37,.84-5.41,2.43-7.01,23.33-23.55,46.84-46.9,70.32-70.29,.46-.46,1-.83,2.03-1.68Z"/>
      <path class="cls-3" d="M.45,0C2.54,1.93,3.75,2.98,4.88,4.11,27.52,26.73,50.19,49.3,72.67,72.07c1.84,1.87,3.25,5.11,3.25,7.72,.16,98.32,.16,196.63,0,294.95,0,2.61-1.46,5.75-3.26,7.72-5.84,6.39-12.03,12.48-18.35,18.39-1.63,1.52-4.24,2.75-6.43,2.79-14.16,.25-28.33,0-42.49,.2C1.14,403.9,0,402.31,0,398.27,.08,267.12,.06,135.98,.08,4.83c0-1.13,.17-2.25,.38-4.83Z"/>
      <path class="cls-7" d="M382.96,403.34h-74.75v-5.31c0-66.64-.03-133.27,.12-199.91,0-2.52,1.02-5.71,2.73-7.44,22.83-23.07,45.87-45.93,68.86-68.83,.76-.76,1.65-1.4,3.04-2.56V403.34Z"/>
      <path class="cls-5" d="M206.14,403.23c0-32.72,0-64.99,0-97.26,0-7.82-.19-15.65,.12-23.45,.09-2.25,1-5.05,2.53-6.59,23.28-23.36,46.73-46.55,70.15-69.77,.42-.42,.96-.72,1.96-1.45v198.52h-74.76Z"/>
      <path class="cls-1" d="M103.38,103.9c1.69,1.56,2.91,2.61,4.05,3.74,22.39,22.38,44.74,44.79,67.2,67.1,2.42,2.41,3.54,4.8,3.52,8.28-.14,24.99-.01,49.98-.18,74.97-.01,2.23-.87,5.07-2.38,6.6-23.19,23.46-46.56,46.74-69.89,70.06-.55,.55-1.22,1-2.31,1.88V103.9Z"/>
      <path class="cls-4" d="M84.61,403.6c31.23-31.63,62.74-63.55,94.15-95.35,.03,.34,.28,1.71,.28,3.07,.02,28.96-.01,57.91,.05,86.87,0,3.4-.29,5.67-4.72,5.65-29.44-.14-58.89-.07-88.33-.08-.81,0-1.63-.18-1.44-.16Z"/>
      <path class="cls-2" d="M243.25,69.14C220.55,46.01,198.38,23.41,176.13,.73h134.31c-22.47,22.88-44.69,45.5-67.19,68.41Z"/>
    </g>
  </g>
</svg>