<?xml version="1.0" encoding="UTF-8"?>
<svg id="Livello_2" data-name="Livello 2" xmlns="http://www.w3.org/2000/svg" viewBox="0 0 731 570.93">
  <defs>
    <style>
      .cls-1 {
        fill: #030303;
      }

      .cls-2 {
        fill: #060606;
      }

      .cls-3 {
        fill: #050505;
      }

      .cls-4 {
        fill: #020202;
      }

      .cls-5 {
        fill: #f0f0f0;
      }

      .cls-6 {
        fill: #ebbebe;
      }

      .cls-7 {
        fill: #ededed;
      }

      .cls-8 {
        fill: #edd1d1;
      }

      .cls-9 {
        fill: #e67b7b;
      }

      .cls-10 {
        fill: #d62424;
      }

      .cls-11 {
        fill: #de5050;
      }

      .cls-12 {
        fill: #080808;
      }

      .cls-13 {
        fill: #070707;
      }
    </style>
  </defs>
  <g id="Livello_1-2" data-name="Livello 1">
    <g>
      <path class="cls-10" d="M607.77,.8V403.32h-74.88v-5.55c0-105.99-.02-211.98,.1-317.98,0-2.37,.84-5.41,2.43-7.01,23.33-23.55,46.84-46.9,70.32-70.29,.46-.46,1-.83,2.03-1.68Z"/>
      <path class="cls-7" d="M122.96,0c2.08,1.93,3.3,2.98,4.43,4.11,22.63,22.61,45.31,45.19,67.78,67.96,1.84,1.87,3.25,5.11,3.25,7.72,.16,98.32,.16,196.63,0,294.95,0,2.61-1.46,5.75-3.26,7.72-5.84,6.39-12.03,12.48-18.35,18.39-1.63,1.52-4.24,2.75-6.43,2.79-14.16,.25-28.33,0-42.49,.2-4.25,.06-5.39-1.53-5.39-5.58,.08-131.14,.06-262.29,.08-393.43,0-1.13,.17-2.25,.38-4.83Z"/>
      <path class="cls-11" d="M505.47,403.34h-74.75v-5.31c0-66.64-.03-133.27,.12-199.91,0-2.52,1.02-5.71,2.73-7.44,22.83-23.07,45.87-45.93,68.86-68.83,.76-.76,1.65-1.4,3.04-2.56V403.34Z"/>
      <path class="cls-9" d="M328.64,403.23c0-32.72,0-64.99,0-97.26,0-7.82-.19-15.65,.12-23.45,.09-2.25,1-5.05,2.53-6.59,23.28-23.36,46.73-46.55,70.15-69.77,.42-.42,.96-.72,1.96-1.45v198.52h-74.76Z"/>
      <path class="cls-5" d="M225.88,103.9c1.69,1.56,2.91,2.61,4.05,3.74,22.39,22.38,44.74,44.79,67.2,67.1,2.42,2.41,3.54,4.8,3.52,8.28-.14,24.99-.01,49.98-.18,74.97-.01,2.23-.87,5.07-2.38,6.6-23.19,23.46-46.56,46.74-69.89,70.06-.55,.55-1.22,1-2.31,1.88V103.9Z"/>
      <path class="cls-8" d="M207.12,403.6c31.23-31.63,62.74-63.55,94.15-95.35,.03,.34,.28,1.71,.28,3.07,.02,28.96-.01,57.91,.05,86.87,0,3.4-.29,5.67-4.72,5.65-29.44-.14-58.89-.07-88.33-.08-.81,0-1.63-.18-1.44-.16Z"/>
      <path class="cls-6" d="M365.75,69.14c-22.7-23.13-44.87-45.73-67.12-68.41h134.31c-22.47,22.88-44.69,45.5-67.19,68.41Z"/>
      <path class="cls-2" d="M285.75,524.17v44.47h-11.92v-66.59h19.5c4.82,15.28,9.68,30.68,14.85,47.05v-46.95h12.65v66.29h-18.83c-4.95-15.04-9.9-30.11-14.86-45.19-.34-.81-.68-1.63-1.02-2.44-.18,.03-.37,.07-.55,.1,.07,1.09,.13,2.18,.2,3.27Z"/>
      <path class="cls-13" d="M106.36,542.27c-3.16-.2-5.75-.37-8.49-.55-.51-3.65-.98-7.06-1.53-10.96h24.81c0,10.76,.03,21.34-.07,31.92,0,.77-.8,1.81-1.52,2.26-8.59,5.46-25.98,9.14-36.55,2.14-3.97-2.63-8.05-6.42-9.92-10.64-6.27-14.18-6.77-28.79,1.47-42.49,9.35-15.54,33.53-17.91,46.02-4.65-2.7,2.41-5.4,4.83-8.39,7.5,.28,.04-.11,.1-.34-.07-12.54-9.26-24.75-4.17-26.14,11.35-.63,7.04-.38,14.33,.76,21.3,1.45,8.84,8.55,12.38,16.82,9.23,1.26-.48,2.81-2.11,2.91-3.32,.36-4.25,.14-8.55,.14-13.01Z"/>
      <path class="cls-2" d="M51.93,509.26c-2.42,2.82-4.68,5.45-7.11,8.28-5.94-3.95-12.22-7.14-19.43-4.8-2.24,.73-5.22,3.17-5.43,5.1-.23,2.01,1.98,5.29,3.99,6.36,4.5,2.39,9.58,3.66,14.37,5.55,13.71,5.4,18.78,17.53,12.23,29.53-3.42,6.27-9.25,9.19-16.01,10.64-12.82,2.74-26.83-.64-34.54-8.57,2.5-2.78,5.02-5.58,7.74-8.6,5.53,4.77,11.76,7.11,18.79,6.79,4.54-.2,8.64-1.61,9.93-6.66,1.06-4.13-1.23-7.41-6.66-9.68-5.32-2.23-10.86-3.96-16.07-6.4-7.13-3.33-10.72-9-10.4-17.13,.3-7.7,4.3-12.68,10.85-15.92,11.31-5.61,27.73-3.28,37.76,5.51Z"/>
      <path class="cls-12" d="M495.83,568.64h-16.42c-2.5-16.96-4.98-33.82-7.53-51.1h13.86c1,11.85,2.03,23.94,3.05,36.03,.37,.03,.73,.07,1.1,.1,1.5-9.86,3-19.72,4.52-29.72h12.89c1.35,9.94,2.7,19.83,4.05,29.71,.34-.02,.67-.04,1.01-.06,1.03-11.94,2.06-23.88,3.11-36.12h13.41c-2.44,17.13-4.84,34.02-7.27,51.09h-16.72c-1.28-9.68-2.55-19.27-3.82-28.87-.38-.03-.77-.06-1.15-.08-1.35,9.61-2.71,19.21-4.09,29.02Z"/>
      <path class="cls-2" d="M543.46,545.8c.31-11.96,2.87-20.95,12.27-26.02,8.59-4.63,17.66-4.78,26.09,.43,3.09,1.91,5.97,4.99,7.66,8.21,5.46,10.41,5.24,21.3-.3,31.51-4.93,9.09-13.79,11.5-23.52,10.76-9.58-.73-16.75-5.3-19.97-14.67-1.33-3.88-1.78-8.06-2.23-10.21Zm34.39-2.3c-.47-2.86-.8-6.17-1.57-9.37-.97-4.03-3.81-6.16-7.92-6.32-4.05-.15-7.26,2.18-7.61,5.81-.65,6.65-.62,13.45,.02,20.1,.39,4.08,3.95,5.94,8.09,5.84,4.09-.1,6.39-2.72,7.41-6.27,.86-3,1.04-6.2,1.59-9.8Z"/>
      <path class="cls-3" d="M389.56,547.75h-32.7c.83,12.02,10.4,15.04,25.06,7.87,1.87,2.56,3.78,5.17,5.66,7.74-8.13,7.81-22.62,9.75-33.19,4.64-9.31-4.5-14.59-15.09-13.31-26.73,2.01-18.29,15.22-27.95,32.16-23.5,9.16,2.41,15.38,10.07,16.28,20.36,.27,3.1,.04,6.24,.04,9.61Zm-32.95-9.19h18.06c-.19-7.8-3.08-11.73-8.51-11.79-5.8-.06-8.98,3.76-9.55,11.79Z"/>
      <path class="cls-2" d="M154.51,513.86h-18.57v-11.71h53.54c-.49,3.78-.97,7.5-1.5,11.62h-17.91v54.35h-15.56v-54.25Z"/>
      <path class="cls-2" d="M457.04,566.27c-8.45,4.83-16.99,6.03-25.73,3.01-6.61-2.28-10.03-7.63-10.28-14.51-.31-8.46-.07-16.93-.07-25.78h-10.61v-11.09h10.31v-11.09c5.04-.67,9.78-1.3,14.99-2v12.85h16.76c-.57,3.95-1.06,7.33-1.59,11.05h-14.83c0,7.29-.05,14.2,.01,21.1,.07,7.82,2.96,10.16,10.55,8.58,1.77-.37,3.48-.98,5.72-1.62,.72,1.41,1.55,2.97,2.34,4.55,.74,1.47,1.45,2.96,2.43,4.95Z"/>
      <path class="cls-1" d="M645.53,568.66h-31.53v-9.66c2-.13,4.07-.26,6.35-.4v-30.8h-6.45v-9.66h18.05c.83,3,1.74,6.29,2.47,8.91,3.57-3.27,6.84-7.29,11.02-9.8,4.59-2.76,9.91-1.85,15.18,.55-.91,6.87-1.83,13.71-2.76,20.75h-9.48v-8.37c-9.95,1.81-14.23,11.87-12.35,28.51h9.52v9.97Z"/>
      <path class="cls-4" d="M696.5,541.43v27.08h-14.87v-71.14c4.76-.52,9.49-1.04,14.87-1.63v45.68Z"/>
      <path class="cls-3" d="M696.5,541.43v-.3c4.9-6.53,9.99-12.93,14.59-19.67,1.93-2.82,3.89-4.03,7.25-3.76,3.46,.29,6.96,.06,11.33,.06-4.8,6.44-9.06,12.47-13.69,18.21-2.39,2.97-2.92,5.15-.51,8.6,5.31,7.58,10.03,15.57,15.51,24.21-5.72,0-10.89,.12-16.06-.11-.93-.04-2.03-1.43-2.66-2.44-4.35-7.05-8.56-14.18-12.9-21.24-.79-1.29-1.92-2.37-2.89-3.55Z"/>
    </g>
  </g>
</svg>